# xmcd
#
# Track frame offsets: 
#        150
#        16210
#        29818
#        43537
#        54554
#        63760
#        72102
#        83676
#        93160
#        104121
#        115723
#
# Disc length: 1725 seconds
#
# Revision: 0
# Processed by: cddbd v1.5.1PL2 Copyright (c) Steve Scherf et al.
# Submitted via: ExactAudioCopy v0.95b3
#
DISCID=8906bb0b
DTITLE=Willie Nelson - Greatest hits
DYEAR=1900
DGENRE=Folk/Rock
TTITLE0=Always on my Mind
TTITLE1=I Just Don't Understand
TTITLE2=You'll Always Have Someone
TTITLE3=Blame It On the Times
TTITLE4=Wastin' Time
TTITLE5=You Wouldn't Cross The Street To Say Goodbye
TTITLE6=I'm Gonna Lose A Lot of Teardrops
TTITLE7=One Step Beyond
TTITLE8=I Feel Sorry For Him
TTITLE9=Suffer In Silence
TTITLE10=Home is Where You're Happy
EXTD=
EXTT0=
EXTT1=
EXTT2=
EXTT3=
EXTT4=
EXTT5=
EXTT6=
EXTT7=
EXTT8=
EXTT9=
EXTT10=
PLAYORDER=
